<svg width="29700" height="21000" xmlns="http://www.w3.org/2000/svg" style="vector-effect: non-scaling-stroke;" stroke="null">
 <defs style="vector-effect: non-scaling-stroke;" stroke="null">
  <style style="vector-effect: non-scaling-stroke;" stroke="null" type="text/css">
   <![CDATA[
    .fil0 {fill:black;fill-rule:nonzero}
    .fil1 {fill:black;fill-rule:nonzero}
    .fil2 {fill:gray;fill-rule:nonzero}
   ]]>
  </style>
 </defs>
 <g stroke="null">
  <title stroke="null">background</title>
  <rect stroke="null" fill="none" id="canvas_background" height="402" width="582" y="-1" x="-1"/>
 </g>
 <g stroke="null">
  <title stroke="null">Layer 1</title>
  <g stroke="null" id="Слой_x0020_1">
   <metadata stroke="null" transform="translate(-20.00107765197754,0) translate(-20.00107765197754,0) translate(-20.00107765197754,0) translate(-20.00107765197754,0) translate(-20.00107765197754,0) translate(-20.00107765197754,0) translate(-20.00107765197754,0) translate(-20.00107765197754,0) translate(-20.00107765197754,0) translate(-20.00107765197754,0) translate(-20.00107765197754,0) translate(-20.00107765197754,0) translate(-20.00107765197754,0) translate(-20.00107765197754,0) translate(-20.00107765197754,0) translate(-20.00107765197754,0) translate(-20.00107765197754,0) translate(-20.00107765197754,0) translate(-20.00107765197754,0) translate(-20.00107765197754,0) translate(-20.00107765197754,0) translate(-20.00107765197754,0) translate(-20.00107765197754,0) translate(-20.00107765197754,0) translate(-20.00107765197754,0) translate(-20.00107765197754,0) translate(-20.00107765197754,0) translate(-20.00107765197754,0) translate(21224.19921875,14718.0498046875) scale(1.4298810958862305) translate(-21224.19921875,-14718.0498046875) translate(2094.932373046875,2328.418701171875) scale(1.3686693906784058) translate(-2094.932373046875,-2328.418701171875) " id="CorelCorpID_0Corel-Layer"/>
   <g stroke="null" id="_755802320">
    <g stroke="null" id="svg_1">
     <path stroke="null" id="svg_2" d="m11496.445836,8681.694459l5333.643083,-4266.922295l-5333.643083,0l0,4266.922295zm2666.792186,-2133.422007m0,-2133.500288m-2666.792186,2133.500288" class="fil0"/>
     <path stroke="null" id="svg_3" d="m11496.445836,8681.635748l5333.643083,4266.922295l-5333.643083,0l0,-4266.922295zm2666.792186,2133.441577m0,2133.480718m-2666.792186,-2133.480718" class="fil0"/>
    </g>
    <path stroke="null" id="svg_4" d="m12989.897995,8681.674889l0,0l5333.643083,-4266.922295l0,8533.844589l-5333.643083,-4266.922295zm0,0m2666.831327,-2133.382866m2666.811756,2133.382866m-2666.811756,2133.539429" class="fil0"/>
   </g>
   <path stroke="null" id="svg_5" d="m7553.217046,14798.8363l112.666475,0l0,370.603621l409.822592,-370.603621l155.192835,0l-444.89265,401.524766l480.530248,478.318799l-160.183273,0l-404.851725,-406.789189l-35.618028,31.488685l0,375.300504l-112.666475,0l0,-879.843565zm833.442278,0l112.686046,0l0,161.827182c44.737808,-61.587875 96.090393,-107.421623 154.37088,-137.814369c58.260917,-30.373175 123.15618,-45.559763 194.959776,-45.559763c125.113215,0 231.986868,45.011793 320.914515,134.761395c88.908077,89.769172 133.3719,198.01275 133.3719,324.221904c0,129.242558 -44.189839,238.601645 -132.275961,328.899216c-88.105693,90.043157 -194.411806,135.05495 -318.957481,135.05495c-69.885702,0 -134.213425,-14.638618 -193.041882,-43.641869c-58.828457,-29.277236 -111.844521,-72.62555 -159.341748,-130.338497l0,473.876331l-112.686046,0l0,-1201.28648zm453.738446,87.812137c-98.027858,0 -180.340728,33.974119 -247.153886,102.176771c-67.126283,68.222222 -100.532862,153.000956 -100.532862,254.355772c0,66.539173 14.912603,126.483139 44.737808,179.499203c29.825206,53.290049 72.62555,95.268439 128.146618,126.483139c55.775483,31.19513 114.60394,46.675273 176.191815,46.675273c60.746351,0 117.911328,-15.754128 171.494932,-47.223242c53.564034,-31.2147 96.090393,-75.130554 127.853063,-131.454007c31.76267,-56.343023 47.497227,-115.445464 47.497227,-177.03334c0,-62.40983 -15.734557,-121.492701 -47.223242,-177.287754c-31.469115,-55.775483 -73.74106,-99.143367 -127.031109,-129.790527c-53.016064,-30.940715 -111.296551,-46.401288 -173.980366,-46.401288zm1417.812776,500.413719l95.542424,50.256646c-31.469115,61.020335 -67.654682,110.455027 -108.811118,148.010518c-41.136865,37.281507 -87.264168,66.010773 -138.616753,85.620259c-51.64614,19.609486 -109.652642,29.277236 -174.547906,29.277236c-144.15516,0 -256.547651,-46.949257 -337.745012,-140.847772c-81.177791,-93.898515 -121.786256,-199.950214 -121.786256,-318.135526c0,-111.296551 34.522088,-210.713903 103.29228,-297.704086c86.990183,-110.748582 203.805572,-166.25008 349.898196,-166.25008c150.495952,0 270.912284,56.890993 360.661886,170.398993c63.799324,80.081851 96.383949,180.047173 97.479888,300.18952l-795.338816,0c2.211449,101.902786 35.070058,185.292025 98.321413,250.187289c63.505769,65.188819 141.943711,97.773443 235.000701,97.773443c45.011793,0 88.927647,-7.730286 131.454007,-23.210429c42.526359,-15.460572 78.711927,-35.892013 108.537133,-61.568305c29.825206,-25.695863 62.135845,-66.832728 96.657933,-123.997705zm1.095939,-236.957736c-15.186588,-60.472366 -37.281507,-108.517562 -66.284758,-144.70313c-29.257666,-36.185568 -67.654682,-65.169248 -115.425894,-87.264168c-47.771212,-22.094919 -98.027858,-33.132594 -150.515522,-33.132594c-86.990183,0 -161.553197,27.613757 -223.963027,83.115255c-45.833748,40.588895 -80.081851,101.080831 -103.546695,181.984637l659.735896,0zm1209.310321,-351.26812l0,879.843565l-112.686046,0l0,-151.337477c-47.497227,57.712947 -100.513291,101.080831 -159.615733,129.790527c-58.828457,28.729266 -123.449736,43.093899 -193.315867,43.093899c-124.27169,0 -230.597374,-45.011793 -318.683496,-135.05495c-88.105693,-90.297571 -132.001976,-199.656658 -132.001976,-328.899216c0,-126.209154 44.463824,-234.452732 133.3719,-324.221904c88.653662,-89.749602 195.527316,-134.761395 320.62096,-134.761395c72.07758,0 137.266399,15.186588 195.801301,45.559763c58.280487,30.392746 109.633072,76.226493 153.822911,137.814369l0,-161.827182l112.686046,0zm-453.464461,87.812137c-62.957799,0 -121.238287,15.460572 -174.254351,46.401288c-53.309619,30.64716 -95.561994,74.015044 -127.031109,129.790527c-31.488685,55.795053 -47.223242,114.877924 -47.223242,177.287754c0,61.587875 15.734557,120.690317 47.497227,177.03334c31.76267,56.323453 74.289029,100.239306 127.853063,131.454007c53.583604,31.469115 111.022567,47.223242 172.336457,47.223242c61.568305,0 120.396762,-15.480143 175.624275,-46.675273c55.521068,-31.2147 98.047428,-73.19309 127.872633,-126.483139c29.825206,-53.016064 44.737808,-112.960031 44.737808,-179.499203c0,-101.354816 -33.426149,-186.13355 -100.532862,-254.355772c-66.832728,-68.202652 -149.126028,-102.176771 -246.879901,-102.176771zm611.14273,-87.812137l578.284121,0l0,97.753873l-233.630777,0l0,782.089693l-112.666475,0l0,-782.089693l-231.986868,0l0,-97.753873zm844.773507,0l0,651.731625l647.328298,-651.731625l8.826226,0l0,879.843565l-112.666475,0l0,-646.760758l-642.35743,646.760758l-13.797093,0l0,-879.843565l112.666475,0zm1164.298528,879.843565l-255.999681,0l0,-879.843565l252.124753,0c96.109964,0 165.428125,22.094919 207.954485,65.991203c42.252375,44.189839 63.505769,95.835979 63.505769,154.93842c0,89.201632 -39.473386,149.400013 -118.459298,181.162683c114.329955,40.588895 171.494932,118.733282 171.494932,234.452732c0,162.101167 -106.873653,243.298528 -320.62096,243.298528zm-143.333206,-782.089693l0,273.397718l74.015044,0c67.380697,0 111.570536,-2.759419 132.001976,-8.004271c20.705425,-5.518837 40.040926,-18.787531 58.260917,-39.766941c18.239561,-21.272965 27.339772,-49.160706 27.339772,-84.230764c0,-36.459553 -9.374195,-66.832728 -28.435711,-91.413081c-19.061516,-24.854338 -38.944986,-39.199401 -59.924396,-43.622299c-20.99898,-4.148913 -64.073309,-6.360362 -129.242558,-6.360362l-74.015044,0zm0,377.785938l0,308.193791l121.786256,0c57.438962,0 98.595398,-3.581373 123.175751,-11.037675c24.580353,-7.182317 45.833748,-22.916874 63.231784,-47.223242c17.672021,-24.306368 26.517817,-54.953528 26.517817,-92.235035c0,-48.064767 -15.186588,-86.168229 -45.579333,-114.897495c-30.373175,-28.435711 -70.414101,-42.800344 -120.122777,-42.800344l-169.009498,0zm1288.844203,-19.88347l-513.662842,0l0,424.187225l-112.666475,0l0,-879.843565l112.666475,0l0,349.624211l513.662842,0l0,-349.624211l112.666475,0l0,879.843565l-112.666475,0l0,-424.187225zm782.089693,-477.20329c135.583349,0 248.269395,48.886722 337.471027,146.914579c81.177791,89.201632 121.786256,194.979346 121.786256,317.039587c0,122.608211 -42.819915,229.755849 -128.694588,321.442915c-85.620259,91.687066 -196.075285,137.540384 -330.562695,137.540384c-135.328935,0 -246.057946,-45.853318 -331.678205,-137.540384c-85.874673,-91.687066 -128.694588,-198.834704 -128.694588,-321.442915c0,-121.512271 40.608466,-226.99643 121.786256,-316.198062c89.201632,-98.595398 202.161663,-147.756104 338.586537,-147.756104zm-0.56754,111.022567c-94.152929,0 -174.80232,34.522088 -242.457003,103.84025c-67.654682,69.318162 -101.354816,153.255371 -101.354816,251.576783c0,63.231784 15.460572,122.334226 46.127303,177.287754c30.921145,54.679544 72.62555,96.931918 125.093644,126.757124c52.19411,29.825206 109.907057,44.737808 172.590872,44.737808c62.703385,0 120.416332,-14.912603 172.610442,-44.737808c52.468095,-29.825206 94.1725,-72.07758 125.093644,-126.757124c30.66673,-54.953528 46.127303,-114.05597 46.127303,-177.287754c0,-98.321413 -33.974119,-182.258622 -101.902786,-251.576783c-67.654682,-69.318162 -148.304074,-103.84025 -241.928603,-103.84025zm1411.197999,498.750239l95.542424,50.256646c-31.469115,61.020335 -67.654682,110.455027 -108.811118,148.010518c-41.136865,37.281507 -87.264168,66.010773 -138.616753,85.620259c-51.64614,19.609486 -109.652642,29.277236 -174.547906,29.277236c-144.15516,0 -256.547651,-46.949257 -337.745012,-140.847772c-81.177791,-93.898515 -121.786256,-199.950214 -121.786256,-318.135526c0,-111.296551 34.522088,-210.713903 103.29228,-297.704086c86.990183,-110.748582 203.805572,-166.25008 349.898196,-166.25008c150.495952,0 270.912284,56.890993 360.661886,170.398993c63.799324,80.081851 96.383949,180.047173 97.479888,300.18952l-795.338816,0c2.211449,101.902786 35.070058,185.292025 98.321413,250.187289c63.505769,65.188819 141.943711,97.773443 235.000701,97.773443c45.011793,0 88.927647,-7.730286 131.454007,-23.210429c42.526359,-15.460572 78.711927,-35.892013 108.537133,-61.568305c29.825206,-25.695863 62.135845,-66.832728 96.657933,-123.997705zm1.095939,-236.957736c-15.186588,-60.472366 -37.281507,-108.517562 -66.284758,-144.70313c-29.257666,-36.185568 -67.654682,-65.169248 -115.425894,-87.264168c-47.771212,-22.094919 -98.027858,-33.132594 -150.515522,-33.132594c-86.990183,0 -161.553197,27.613757 -223.963027,83.115255c-45.833748,40.588895 -80.081851,101.080831 -103.546695,181.984637l659.735896,0zm1634.867471,-710.834067l0,107.695608c-54.131574,9.393766 -146.640594,16.028112 -278.094601,19.88347c-94.994454,3.326959 -168.461529,9.66775 -220.088099,19.061516c-51.64614,9.66775 -96.657933,27.613757 -135.05495,54.405559c-38.103461,27.065787 -70.414101,67.654682 -96.657933,122.060241c-26.224262,54.405559 -42.526359,115.445464 -49.141136,182.552177l-11.33123,124.545675c30.921145,-101.080831 81.471346,-174.821891 152.159431,-221.771148c70.433671,-46.929687 148.852043,-70.414101 234.746287,-70.414101c130.886467,0 240.245554,45.853318 328.077262,137.246829c87.812137,91.413081 131.727991,200.224198 131.727991,326.707337c0,125.367629 -43.915854,233.082808 -131.454007,323.380379c-87.538153,90.297571 -197.171225,135.60292 -328.625231,135.60292c-134.780965,0 -248.817365,-50.276216 -342.441895,-150.515522c-93.62453,-100.239306 -140.299802,-258.21113 -140.299802,-473.895901c0,-150.221967 17.124052,-264.277937 51.372155,-341.60037c34.522088,-77.322433 73.74106,-132.843501 118.204883,-166.798049c44.170268,-33.974119 101.628801,-60.765921 171.768917,-80.101422c70.414101,-19.589915 202.142092,-31.469115 395.183974,-36.439982c59.376426,-1.663479 109.359087,-5.518837 149.947982,-11.605215zm-59.650411,804.458597c0,-97.205903 -33.954548,-180.888698 -102.176771,-250.754829c-67.928667,-69.866131 -148.578058,-104.662204 -241.909033,-104.662204c-93.07656,0 -173.432396,35.070058 -241.361063,105.210174c-68.222222,70.140116 -102.196341,153.548926 -102.196341,250.754829c0,96.383949 32.878179,178.677249 98.321413,246.605916c65.717218,67.674253 147.462549,101.628801 245.235992,101.628801c98.027858,0 180.047173,-33.954548 245.783961,-101.902786c65.443233,-67.928667 98.301842,-150.221967 98.301842,-246.879901zm439.099828,434.950915l-112.686046,0l0,-879.843565l112.686046,0l0,369.507682l149.126028,0c19.88347,-117.108944 72.351565,-211.555428 157.404284,-283.339453c85.052719,-71.803595 183.922101,-107.715178 296.608147,-107.715178c130.612482,0 239.697584,45.853318 327.509722,137.246829c87.557723,91.413081 131.454007,200.224198 131.454007,326.707337c0,125.367629 -43.622299,233.082808 -131.180022,323.380379c-87.264168,90.297571 -196.34927,135.60292 -326.961752,135.60292c-116.541404,0 -218.44419,-38.123032 -305.434373,-114.329955c-87.264168,-76.226493 -136.972844,-178.403264 -149.400013,-306.549882l-149.126028,0l0,399.332887zm946.128323,-434.950915c0,-97.205903 -33.974119,-180.888698 -101.902786,-250.754829c-67.674253,-69.866131 -148.030089,-104.662204 -240.539109,-104.662204c-93.350545,0 -173.980366,34.796073 -241.654619,104.662204c-67.928667,69.866131 -101.902786,153.548926 -101.902786,250.754829c0,96.657933 32.604195,178.951234 97.499458,246.879901c64.895264,67.948237 146.914579,101.902786 246.057946,101.902786c97.479888,0 178.951234,-33.954548 244.394467,-101.902786c65.443233,-67.928667 98.047428,-150.221967 98.047428,-246.879901zm326.413782,-444.89265l112.686046,0l0,161.827182c44.737808,-61.587875 96.090393,-107.421623 154.37088,-137.814369c58.260917,-30.373175 123.15618,-45.559763 194.959776,-45.559763c125.113215,0 231.986868,45.011793 320.914515,134.761395c88.908077,89.769172 133.3719,198.01275 133.3719,324.221904c0,129.242558 -44.189839,238.601645 -132.275961,328.899216c-88.105693,90.043157 -194.411806,135.05495 -318.957481,135.05495c-69.885702,0 -134.213425,-14.638618 -193.041882,-43.641869c-58.828457,-29.277236 -111.844521,-72.62555 -159.341748,-130.338497l0,473.876331l-112.686046,0l0,-1201.28648zm453.738446,87.812137c-98.027858,0 -180.340728,33.974119 -247.153886,102.176771c-67.126283,68.222222 -100.532862,153.000956 -100.532862,254.355772c0,66.539173 14.912603,126.483139 44.737808,179.499203c29.825206,53.290049 72.62555,95.268439 128.146618,126.483139c55.775483,31.19513 114.60394,46.675273 176.191815,46.675273c60.746351,0 117.911328,-15.754128 171.494932,-47.223242c53.564034,-31.2147 96.090393,-75.130554 127.853063,-131.454007c31.76267,-56.343023 47.497227,-115.445464 47.497227,-177.03334c0,-62.40983 -15.734557,-121.492701 -47.223242,-177.287754c-31.469115,-55.775483 -73.74106,-99.143367 -127.031109,-129.790527c-53.016064,-30.940715 -111.296551,-46.401288 -173.980366,-46.401288zm1092.220948,-109.359087c135.583349,0 248.269395,48.886722 337.471027,146.914579c81.177791,89.201632 121.786256,194.979346 121.786256,317.039587c0,122.608211 -42.819915,229.755849 -128.694588,321.442915c-85.620259,91.687066 -196.075285,137.540384 -330.562695,137.540384c-135.328935,0 -246.057946,-45.853318 -331.678205,-137.540384c-85.874673,-91.687066 -128.694588,-198.834704 -128.694588,-321.442915c0,-121.512271 40.608466,-226.99643 121.786256,-316.198062c89.201632,-98.595398 202.161663,-147.756104 338.586537,-147.756104zm-0.56754,111.022567c-94.152929,0 -174.80232,34.522088 -242.457003,103.84025c-67.654682,69.318162 -101.354816,153.255371 -101.354816,251.576783c0,63.231784 15.460572,122.334226 46.127303,177.287754c30.921145,54.679544 72.62555,96.931918 125.093644,126.757124c52.19411,29.825206 109.907057,44.737808 172.590872,44.737808c62.703385,0 120.416332,-14.912603 172.610442,-44.737808c52.468095,-29.825206 94.1725,-72.07758 125.093644,-126.757124c30.66673,-54.953528 46.127303,-114.05597 46.127303,-177.287754c0,-98.321413 -33.974119,-182.258622 -101.902786,-251.576783c-67.654682,-69.318162 -148.304074,-103.84025 -241.928603,-103.84025z" class="fil1"/>
   <path stroke="null" id="svg_6" d="m2435.474007,16434.604007l225.352521,0l0,1390.727418l821.856633,-711.382036l328.077262,0l-968.771212,838.413145l1025.094665,921.273985l-320.894945,0l-885.362402,-795.886786l0,795.886786l-225.352521,0l0,-2439.032512zm2681.606937,636.271053c271.186269,0 496.53879,97.753873 674.922484,293.829158c162.394722,178.403264 243.572512,389.939122 243.572512,634.059604c0,245.235992 -85.600689,459.531268 -257.369606,642.9054c-171.220947,183.354561 -392.150571,275.041627 -661.125391,275.041627c-270.638299,0 -492.115892,-91.687066 -663.33684,-275.041627c-171.768917,-183.374132 -257.369606,-397.669408 -257.369606,-642.9054c0,-243.024543 81.177791,-454.012431 243.572512,-632.396125c178.383694,-197.190795 404.284185,-295.492637 677.133933,-295.492637zm-1.095939,222.025563c-188.344999,0 -349.624211,69.044177 -484.953146,207.6805c-135.309365,138.616753 -202.690062,306.530312 -202.690062,503.153567c0,126.483139 30.921145,244.688022 92.235035,354.595079c61.86186,109.359087 145.2511,193.863836 250.206859,253.514248c104.38822,59.650411 219.814114,89.475617 345.201313,89.475617c125.367629,0 240.793523,-29.825206 345.181743,-89.475617c104.95576,-59.650411 188.344999,-144.15516 250.206859,-253.514248c61.313891,-109.907057 92.235035,-228.11194 92.235035,-354.595079c0,-196.623255 -67.928667,-364.536814 -203.805572,-503.153567c-135.309365,-138.636323 -296.588577,-207.6805 -483.818066,-207.6805zm1433.91917,-178.951234l231.967298,0l0,257.389176c69.044177,-101.628801 141.943711,-176.739785 218.718174,-226.448461c76.774463,-49.160706 156.856314,-74.015044 239.697584,-74.015044c62.97737,0 129.810098,19.88347 201.046153,59.650411l-118.185313,189.988908c-47.497227,-20.43144 -87.264168,-30.921145 -119.868362,-30.921145c-75.658953,0 -148.558488,30.921145 -218.718174,92.783005c-70.140116,61.86186 -123.70415,158.519794 -160.711672,288.85829c-28.161726,99.984892 -41.97839,302.674954 -41.97839,607.561357l0,594.840633l-231.967298,0l0,-1759.68713zm1120.754511,0l1295.732964,0l-997.480908,1557.545038l964.348314,0l0,202.142092l-1355.402946,0l1001.903806,-1564.159815l-909.101231,0l0,-195.527316zm1816.108435,-722.419711c51.372155,0 94.994454,18.219991 131.454007,55.227513c36.459553,36.439982 54.679544,81.177791 54.679544,132.549946c0,50.824186 -18.219991,94.994454 -54.679544,131.454007c-36.459553,37.007522 -80.081851,55.227513 -131.454007,55.227513c-50.804615,0 -93.898515,-18.219991 -130.338497,-55.227513c-36.459553,-36.459553 -54.679544,-80.629821 -54.679544,-131.454007c0,-51.372155 18.219991,-96.109964 54.679544,-132.549946c36.439982,-37.007522 79.533882,-55.227513 130.338497,-55.227513zm-112.118506,722.419711l225.352521,0l0,1759.68713l-225.352521,0l0,-1759.68713zm879.941417,0l225.352521,0l0,315.376108c91.139096,-120.396762 191.652387,-210.439919 301.559444,-269.52279c110.474597,-59.102442 230.323389,-88.927647 360.113916,-88.927647c132.001976,0 249.09135,33.132594 351.26812,99.965322c102.196341,66.832728 177.855294,156.856314 226.448461,270.09033c48.612737,112.666475 72.919105,288.85829 72.919105,528.007905l0,904.697903l-225.352521,0l0,-838.413145c0,-202.161663 -8.826226,-337.471027 -25.950277,-405.399694c-27.613757,-115.993434 -78.437942,-203.257602 -153.000956,-262.360043c-74.563014,-58.534902 -171.768917,-87.812137 -291.617709,-87.812137c-137.520813,0 -260.696564,45.285778 -368.959712,135.857334c-108.791547,90.043157 -180.595143,202.161663 -214.843246,335.827118c-21.54695,87.264168 -32.584624,246.331931 -32.584624,477.751259l0,644.549309l-225.352521,0l0,-1759.68713zm2204.403648,-679.345382l225.352521,0l0,1390.727418l821.856633,-711.382036l328.077262,0l-968.771212,838.413145l1025.094665,921.273985l-320.894945,0l-885.362402,-795.886786l0,795.886786l-225.352521,0l0,-2439.032512zm1926.035062,-43.074329c51.372155,0 94.994454,18.219991 131.454007,55.227513c36.459553,36.439982 54.679544,81.177791 54.679544,132.549946c0,50.824186 -18.219991,94.994454 -54.679544,131.454007c-36.459553,37.007522 -80.081851,55.227513 -131.454007,55.227513c-50.804615,0 -93.898515,-18.219991 -130.338497,-55.227513c-36.459553,-36.459553 -54.679544,-80.629821 -54.679544,-131.454007c0,-51.372155 18.219991,-96.109964 54.679544,-132.549946c36.439982,-37.007522 79.533882,-55.227513 130.338497,-55.227513zm-112.118506,722.419711l225.352521,0l0,1759.68713l-225.352521,0l0,-1759.68713zm879.941417,0l225.352521,0l0,315.376108c91.139096,-120.396762 191.652387,-210.439919 301.559444,-269.52279c110.474597,-59.102442 230.323389,-88.927647 360.113916,-88.927647c132.001976,0 249.09135,33.132594 351.26812,99.965322c102.196341,66.832728 177.855294,156.856314 226.448461,270.09033c48.612737,112.666475 72.919105,288.85829 72.919105,528.007905l0,904.697903l-225.352521,0l0,-838.413145c0,-202.161663 -8.826226,-337.471027 -25.950277,-405.399694c-27.613757,-115.993434 -78.437942,-203.257602 -153.000956,-262.360043c-74.563014,-58.534902 -171.768917,-87.812137 -291.617709,-87.812137c-137.520813,0 -260.696564,45.285778 -368.959712,135.857334c-108.791547,90.043157 -180.595143,202.161663 -214.843246,335.827118c-21.54695,87.264168 -32.584624,246.331931 -32.584624,477.751259l0,644.549309l-225.352521,0l0,-1759.68713zm3092.545039,191.104418l-145.81864,150.221967c-120.964302,-117.089373 -239.717154,-175.624275 -355.143049,-175.624275c-73.467075,0 -136.424874,24.306368 -188.892969,72.899535c-52.468095,48.045197 -78.985912,104.936189 -78.985912,169.557468c0,56.890993 21.54695,111.570536 64.621279,162.942691c43.093899,53.016064 134.213425,114.877924 272.301779,186.13355c167.893989,86.716198 282.223944,171.220947 342.989864,251.850768c59.102442,81.745331 88.927647,173.980366 88.927647,276.157137c0,144.70313 -50.824186,266.763371 -152.452987,367.296233c-101.628801,99.965322 -228.65991,150.221967 -381.093326,150.221967c-101.628801,0 -198.286734,-22.094919 -291.069739,-66.265188c-92.235035,-44.189839 -168.461529,-104.95576 -229.207879,-182.826162l142.491681,-161.827182c115.425894,130.338497 238.601645,195.527316 368.392172,195.527316c90.591126,0 167.913559,-29.277236 231.967298,-87.264168c63.525339,-58.006502 95.561994,-126.483139 95.561994,-204.921081c0,-64.621279 -20.99898,-122.060241 -62.957799,-172.864856c-42.54593,-49.708676 -137.540384,-112.118506 -285.550902,-187.24906c-159.067763,-81.745331 -267.330911,-162.375151 -324.221904,-241.909033c-57.438962,-79.533882 -86.148658,-170.105438 -86.148658,-272.301779c0,-133.097916 45.833748,-243.572512 136.972844,-331.93262c91.687066,-87.812137 207.11296,-132.001976 346.845222,-132.001976c162.394722,0 325.865813,77.870402 490.471983,234.178747zm777.197106,-847.258941l225.352521,0l0,656.154523l357.902467,0l0,195.527316l-357.902467,0l0,1564.159815l-225.352521,0l0,-1564.159815l-308.193791,0l0,-195.527316l308.193791,0l0,-656.154523zm1080.98757,656.154523l225.352521,0l0,821.308664c0,200.478613 11.037675,338.018997 32.584624,413.67795c32.036655,107.695608 94.446484,192.748327 185.585581,255.177727c91.119526,62.40983 200.478613,93.878944 326.961752,93.878944c126.483139,0 233.630777,-30.373175 322.010455,-91.119526c87.812137,-61.313891 149.126028,-140.847772 182.258622,-240.265124c22.642889,-67.928667 34.248104,-211.535858 34.248104,-431.349972l0,-821.308664l231.967298,0l0,862.719513c0,242.476573 -28.161726,424.735195 -85.052719,547.343406c-56.343023,123.175751 -141.943711,219.285714 -255.725697,288.310321c-113.781985,69.592146 -256.273666,104.38822 -428.042583,104.38822c-171.768917,0 -314.828138,-34.796073 -429.706063,-104.38822c-114.877924,-69.024606 -201.046153,-166.25008 -257.369606,-290.52177c-56.890993,-124.27169 -85.072289,-311.501179 -85.072289,-561.140499l0,-846.710971zm3983.974248,-679.345382l0,2439.032512l-225.352521,0l0,-302.674954c-94.994454,115.445464 -201.046153,202.161663 -319.231466,259.600625c-117.656913,57.438962 -246.899471,86.148658 -386.631733,86.148658c-248.54338,0 -461.175177,-90.023586 -637.366992,-270.070759c-176.191815,-180.614713 -264.003952,-399.332887 -264.003952,-657.818003c0,-252.398738 88.908077,-468.925034 266.763371,-648.424237c177.287754,-179.499203 391.035061,-269.52279 641.24192,-269.52279c144.15516,0 274.493657,30.921145 391.583031,92.235035c116.541404,61.313891 219.285714,153.548926 307.645822,276.705106l0,-1005.211195l225.352521,0zm-906.909352,854.989227c-125.935169,0 -242.476573,30.921145 -348.508702,92.783005c-106.599669,61.313891 -191.104418,148.030089 -254.062217,259.600625c-62.97737,111.550966 -94.446484,229.755849 -94.446484,354.575509c0,123.175751 31.469115,241.361063 94.994454,354.047109c63.505769,112.666475 148.578058,200.478613 255.725697,262.888443c107.147638,62.97737 222.025563,94.446484 344.633773,94.446484c123.175751,0 240.813094,-30.921145 351.287691,-93.330975c111.002996,-62.40983 196.075285,-146.366609 255.706126,-252.966278c59.650411,-106.051699 89.475617,-225.900491 89.475617,-358.998407c0,-202.709632 -66.813157,-372.2671 -201.026583,-508.691975c-133.665456,-136.424874 -298.252056,-204.353541 -493.779372,-204.353541zm1683.010519,-898.063556c51.372155,0 94.994454,18.219991 131.454007,55.227513c36.459553,36.439982 54.679544,81.177791 54.679544,132.549946c0,50.824186 -18.219991,94.994454 -54.679544,131.454007c-36.459553,37.007522 -80.081851,55.227513 -131.454007,55.227513c-50.804615,0 -93.898515,-18.219991 -130.338497,-55.227513c-36.459553,-36.459553 -54.679544,-80.629821 -54.679544,-131.454007c0,-51.372155 18.219991,-96.109964 54.679544,-132.549946c36.439982,-37.007522 79.533882,-55.227513 130.338497,-55.227513zm-112.118506,722.419711l225.352521,0l0,1759.68713l-225.352521,0l0,-1759.68713zm1714.499204,-43.074329c271.186269,0 496.53879,97.753873 674.922484,293.829158c162.394722,178.403264 243.572512,389.939122 243.572512,634.059604c0,245.235992 -85.600689,459.531268 -257.369606,642.9054c-171.220947,183.354561 -392.150571,275.041627 -661.125391,275.041627c-270.638299,0 -492.115892,-91.687066 -663.33684,-275.041627c-171.768917,-183.374132 -257.369606,-397.669408 -257.369606,-642.9054c0,-243.024543 81.177791,-454.012431 243.572512,-632.396125c178.383694,-197.190795 404.284185,-295.492637 677.133933,-295.492637zm-1.095939,222.025563c-188.344999,0 -349.624211,69.044177 -484.953146,207.6805c-135.309365,138.616753 -202.690062,306.530312 -202.690062,503.153567c0,126.483139 30.921145,244.688022 92.235035,354.595079c61.86186,109.359087 145.2511,193.863836 250.206859,253.514248c104.38822,59.650411 219.814114,89.475617 345.201313,89.475617c125.367629,0 240.793523,-29.825206 345.181743,-89.475617c104.95576,-59.650411 188.344999,-144.15516 250.206859,-253.514248c61.313891,-109.907057 92.235035,-228.11194 92.235035,-354.595079c0,-196.623255 -67.928667,-364.536814 -203.805572,-503.153567c-135.309365,-138.636323 -296.588577,-207.6805 -483.818066,-207.6805z" class="fil1"/>
   <path stroke="null" id="svg_7" d="m18595.314457,3329.361697l383.715752,0l0,130.475489l-126.620131,0l0,563.508511l-134.350418,0l0,-563.508511l-122.745203,0l0,-130.475489zm540.141519,0l128.068337,0l161.572767,484.072481l162.375151,-484.072481l127.755211,0l116.30656,693.984l-127.422516,0l-74.112896,-438.336585l-146.914579,438.336585l-116.639255,0l-146.268758,-438.336585l-75.541531,438.336585l-128.870721,0l119.692229,-693.984z" class="fil2"/>
  </g>
 </g>
</svg>